# xmcd
#
# Track frame offsets:
#	150
#	13895
#	33290
#	51192
#
# Disc length: 864 seconds
#
# Revision: 0
# Processed by: cddbd v1.4b42PL0 Copyright (c) Steve Scherf et al.
# Submitted via: EZCDDA 4.3.3.2
#
DISCID=2b035e04
DTITLE=Rick Tippe - After All These Years
DYEAR=1900
DGENRE=
TTITLE0=After all these years
TTITLE1=Daddy Jack Played (the legend of Willow Creek)
TTITLE2=If you're lookin' for the one
TTITLE3=Long Gone
EXTD=
EXTT0=
EXTT1=
EXTT2=
EXTT3=
PLAYORDER=
